<svg xmlns="http://www.w3.org/2000/svg" viewBox="0 0 950 370" width="100%" height="100%">
  <defs>
    <linearGradient id="areaGradient_cyan" x1="0" y1="0" x2="0" y2="1">
      <stop offset="0%" stop-color="rgba(34, 211, 238, 0.35)"/>
      <stop offset="100%" stop-color="rgba(34, 211, 238, 0.00)"/>
    </linearGradient>
  </defs>

  <style>
    .card-bg { fill: #0A101F; stroke: rgba(255, 255, 255, 0.08); stroke-width: 1; }
    .title { fill: #E2E8F0; font-family: -apple-system, BlinkMacSystemFont, "Segoe UI", Roboto, Helvetica, Arial, sans-serif; font-size: 16px; font-weight: 700; }
    .subtitle { fill: #64748B; font-family: -apple-system, BlinkMacSystemFont, "Segoe UI", Roboto, Helvetica, Arial, sans-serif; font-size: 11.5px; font-weight: 500; }
    .axis-label { fill: #64748B; font-family: -apple-system, BlinkMacSystemFont, "Segoe UI", Roboto, Helvetica, Arial, sans-serif; font-size: 12px; font-weight: 600; letter-spacing: 0.5px; }
    .graph-point circle { transition: r 0.2s ease, fill 0.2s ease; cursor: pointer; }
    .graph-point circle:hover { r: 7; fill: #FFFFFF; filter: drop-shadow(0 0 6px #22D3EE); }
  </style>

  <!-- Background Card -->
  <rect width="950" height="370" rx="12" class="card-bg"/>

  <!-- Title & Subtitle -->
  <text x="475.0" y="32" text-anchor="middle" class="title">RBCs-lang's Contribution Graph</text>
  <text x="475.0" y="50" text-anchor="middle" class="subtitle">Aug 10, 2026 – Sep 10, 2026</text>

  <!-- Y-Axis Label -->
  <text x="-192.5" y="32" text-anchor="middle" transform="rotate(-90)" class="axis-label">Contributions</text>

  <!-- X-Axis Label -->
  <text x="502.5" y="362" text-anchor="middle" class="axis-label">Days</text>

  <!-- Grid & Ticks -->
  
        <line x1="95" y1="310.0" x2="910" y2="310.0" stroke="rgba(255, 255, 255, 0.07)" stroke-dasharray="3 4" stroke-width="1"/>
        <text x="80" y="314.0" text-anchor="end" fill="#64748B" font-family="system-ui, -apple-system, sans-serif" font-size="12" font-weight="500">0</text>
        
        <line x1="95" y1="251.2" x2="910" y2="251.2" stroke="rgba(255, 255, 255, 0.07)" stroke-dasharray="3 4" stroke-width="1"/>
        <text x="80" y="255.2" text-anchor="end" fill="#64748B" font-family="system-ui, -apple-system, sans-serif" font-size="12" font-weight="500">10</text>
        
        <line x1="95" y1="192.5" x2="910" y2="192.5" stroke="rgba(255, 255, 255, 0.07)" stroke-dasharray="3 4" stroke-width="1"/>
        <text x="80" y="196.5" text-anchor="end" fill="#64748B" font-family="system-ui, -apple-system, sans-serif" font-size="12" font-weight="500">20</text>
        
        <line x1="95" y1="133.8" x2="910" y2="133.8" stroke="rgba(255, 255, 255, 0.07)" stroke-dasharray="3 4" stroke-width="1"/>
        <text x="80" y="137.8" text-anchor="end" fill="#64748B" font-family="system-ui, -apple-system, sans-serif" font-size="12" font-weight="500">30</text>
        
        <line x1="95" y1="75.0" x2="910" y2="75.0" stroke="rgba(255, 255, 255, 0.07)" stroke-dasharray="3 4" stroke-width="1"/>
        <text x="80" y="79.0" text-anchor="end" fill="#64748B" font-family="system-ui, -apple-system, sans-serif" font-size="12" font-weight="500">40</text>
        
  
            <text x="95.0" y="328" text-anchor="middle" fill="#E2E8F0" font-family="system-ui, -apple-system, sans-serif" font-size="10.5" font-weight="700">Aug</text>
            <text x="95.0" y="342" text-anchor="middle" fill="#64748B" font-family="system-ui, -apple-system, sans-serif" font-size="11" font-weight="600">10</text>
            
            <text x="121.3" y="335" text-anchor="middle" fill="#64748B" font-family="system-ui, -apple-system, sans-serif" font-size="11" font-weight="500">11</text>
            
            <text x="147.6" y="335" text-anchor="middle" fill="#64748B" font-family="system-ui, -apple-system, sans-serif" font-size="11" font-weight="500">12</text>
            
            <text x="173.9" y="335" text-anchor="middle" fill="#64748B" font-family="system-ui, -apple-system, sans-serif" font-size="11" font-weight="500">13</text>
            
            <text x="200.2" y="335" text-anchor="middle" fill="#64748B" font-family="system-ui, -apple-system, sans-serif" font-size="11" font-weight="500">14</text>
            
            <text x="226.5" y="335" text-anchor="middle" fill="#64748B" font-family="system-ui, -apple-system, sans-serif" font-size="11" font-weight="500">15</text>
            
            <text x="252.7" y="335" text-anchor="middle" fill="#64748B" font-family="system-ui, -apple-system, sans-serif" font-size="11" font-weight="500">16</text>
            
            <text x="279.0" y="335" text-anchor="middle" fill="#64748B" font-family="system-ui, -apple-system, sans-serif" font-size="11" font-weight="500">17</text>
            
            <text x="305.3" y="335" text-anchor="middle" fill="#64748B" font-family="system-ui, -apple-system, sans-serif" font-size="11" font-weight="500">18</text>
            
            <text x="331.6" y="335" text-anchor="middle" fill="#64748B" font-family="system-ui, -apple-system, sans-serif" font-size="11" font-weight="500">19</text>
            
            <text x="357.9" y="335" text-anchor="middle" fill="#64748B" font-family="system-ui, -apple-system, sans-serif" font-size="11" font-weight="500">20</text>
            
            <text x="384.2" y="335" text-anchor="middle" fill="#64748B" font-family="system-ui, -apple-system, sans-serif" font-size="11" font-weight="500">21</text>
            
            <text x="410.5" y="335" text-anchor="middle" fill="#64748B" font-family="system-ui, -apple-system, sans-serif" font-size="11" font-weight="500">22</text>
            
            <text x="436.8" y="335" text-anchor="middle" fill="#64748B" font-family="system-ui, -apple-system, sans-serif" font-size="11" font-weight="500">23</text>
            
            <text x="463.1" y="335" text-anchor="middle" fill="#64748B" font-family="system-ui, -apple-system, sans-serif" font-size="11" font-weight="500">24</text>
            
            <text x="489.4" y="335" text-anchor="middle" fill="#64748B" font-family="system-ui, -apple-system, sans-serif" font-size="11" font-weight="500">25</text>
            
            <text x="515.6" y="335" text-anchor="middle" fill="#64748B" font-family="system-ui, -apple-system, sans-serif" font-size="11" font-weight="500">26</text>
            
            <text x="541.9" y="335" text-anchor="middle" fill="#64748B" font-family="system-ui, -apple-system, sans-serif" font-size="11" font-weight="500">27</text>
            
            <text x="568.2" y="335" text-anchor="middle" fill="#64748B" font-family="system-ui, -apple-system, sans-serif" font-size="11" font-weight="500">28</text>
            
            <text x="594.5" y="335" text-anchor="middle" fill="#64748B" font-family="system-ui, -apple-system, sans-serif" font-size="11" font-weight="500">29</text>
            
            <text x="620.8" y="335" text-anchor="middle" fill="#64748B" font-family="system-ui, -apple-system, sans-serif" font-size="11" font-weight="500">30</text>
            
            <text x="647.1" y="335" text-anchor="middle" fill="#64748B" font-family="system-ui, -apple-system, sans-serif" font-size="11" font-weight="500">31</text>
            
            <text x="673.4" y="328" text-anchor="middle" fill="#E2E8F0" font-family="system-ui, -apple-system, sans-serif" font-size="10.5" font-weight="700">Sep</text>
            <text x="673.4" y="342" text-anchor="middle" fill="#64748B" font-family="system-ui, -apple-system, sans-serif" font-size="11" font-weight="600">1</text>
            
            <text x="699.7" y="335" text-anchor="middle" fill="#64748B" font-family="system-ui, -apple-system, sans-serif" font-size="11" font-weight="500">2</text>
            
            <text x="726.0" y="335" text-anchor="middle" fill="#64748B" font-family="system-ui, -apple-system, sans-serif" font-size="11" font-weight="500">3</text>
            
            <text x="752.3" y="335" text-anchor="middle" fill="#64748B" font-family="system-ui, -apple-system, sans-serif" font-size="11" font-weight="500">4</text>
            
            <text x="778.5" y="335" text-anchor="middle" fill="#64748B" font-family="system-ui, -apple-system, sans-serif" font-size="11" font-weight="500">5</text>
            
            <text x="804.8" y="335" text-anchor="middle" fill="#64748B" font-family="system-ui, -apple-system, sans-serif" font-size="11" font-weight="500">6</text>
            
            <text x="831.1" y="335" text-anchor="middle" fill="#64748B" font-family="system-ui, -apple-system, sans-serif" font-size="11" font-weight="500">7</text>
            
            <text x="857.4" y="335" text-anchor="middle" fill="#64748B" font-family="system-ui, -apple-system, sans-serif" font-size="11" font-weight="500">8</text>
            
            <text x="883.7" y="335" text-anchor="middle" fill="#64748B" font-family="system-ui, -apple-system, sans-serif" font-size="11" font-weight="500">9</text>
            
            <text x="910.0" y="335" text-anchor="middle" fill="#64748B" font-family="system-ui, -apple-system, sans-serif" font-size="11" font-weight="500">10</text>
            

  <!-- Area Gradient Fill -->
  <path d="M 95.00,280.62 C 99.38,285.52 112.53,305.10 121.29,310.00 C 130.05,314.90 138.82,317.83 147.58,310.00 C 156.34,302.17 165.11,263.00 173.87,263.00 C 182.63,263.00 191.40,302.17 200.16,310.00 C 208.92,317.83 217.69,310.98 226.45,310.00 C 235.22,309.02 243.98,322.73 252.74,304.12 C 261.51,285.52 270.27,206.21 279.03,198.38 C 287.80,190.54 296.56,239.50 305.32,257.12 C 314.09,274.75 322.85,304.12 331.61,304.12 C 340.38,304.12 349.14,259.08 357.90,257.12 C 366.67,255.17 375.43,297.27 384.19,292.38 C 392.96,287.48 401.72,242.44 410.48,227.75 C 419.25,213.06 428.01,202.29 436.77,204.25 C 445.54,206.21 454.30,222.85 463.06,239.50 C 471.83,256.15 480.59,299.23 489.35,304.12 C 498.12,309.02 506.88,268.88 515.65,268.88 C 524.41,268.88 533.17,297.27 541.94,304.12 C 550.70,310.98 559.46,310.00 568.23,310.00 C 576.99,310.00 585.75,306.08 594.52,304.12 C 603.28,302.17 612.04,297.27 620.81,298.25 C 629.57,299.23 638.33,308.04 647.10,310.00 C 655.86,311.96 664.62,310.98 673.39,310.00 C 682.15,309.02 690.91,305.10 699.68,304.12 C 708.44,303.15 717.20,303.15 725.97,304.12 C 734.73,305.10 743.49,309.02 752.26,310.00 C 761.02,310.98 769.78,310.00 778.55,310.00 C 787.31,310.00 796.08,310.00 804.84,310.00 C 813.60,310.00 822.37,310.00 831.13,310.00 C 839.89,310.00 848.66,345.25 857.42,310.00 C 866.18,274.75 874.95,98.50 883.71,98.50 C 892.47,98.50 905.62,274.75 910.00,310.00 L 910.00,310.00 L 95.00,310.00 Z" fill="url(#areaGradient_cyan)"/>

  <!-- Line Chart Path -->
  <path d="M 95.00,280.62 C 99.38,285.52 112.53,305.10 121.29,310.00 C 130.05,314.90 138.82,317.83 147.58,310.00 C 156.34,302.17 165.11,263.00 173.87,263.00 C 182.63,263.00 191.40,302.17 200.16,310.00 C 208.92,317.83 217.69,310.98 226.45,310.00 C 235.22,309.02 243.98,322.73 252.74,304.12 C 261.51,285.52 270.27,206.21 279.03,198.38 C 287.80,190.54 296.56,239.50 305.32,257.12 C 314.09,274.75 322.85,304.12 331.61,304.12 C 340.38,304.12 349.14,259.08 357.90,257.12 C 366.67,255.17 375.43,297.27 384.19,292.38 C 392.96,287.48 401.72,242.44 410.48,227.75 C 419.25,213.06 428.01,202.29 436.77,204.25 C 445.54,206.21 454.30,222.85 463.06,239.50 C 471.83,256.15 480.59,299.23 489.35,304.12 C 498.12,309.02 506.88,268.88 515.65,268.88 C 524.41,268.88 533.17,297.27 541.94,304.12 C 550.70,310.98 559.46,310.00 568.23,310.00 C 576.99,310.00 585.75,306.08 594.52,304.12 C 603.28,302.17 612.04,297.27 620.81,298.25 C 629.57,299.23 638.33,308.04 647.10,310.00 C 655.86,311.96 664.62,310.98 673.39,310.00 C 682.15,309.02 690.91,305.10 699.68,304.12 C 708.44,303.15 717.20,303.15 725.97,304.12 C 734.73,305.10 743.49,309.02 752.26,310.00 C 761.02,310.98 769.78,310.00 778.55,310.00 C 787.31,310.00 796.08,310.00 804.84,310.00 C 813.60,310.00 822.37,310.00 831.13,310.00 C 839.89,310.00 848.66,345.25 857.42,310.00 C 866.18,274.75 874.95,98.50 883.71,98.50 C 892.47,98.50 905.62,274.75 910.00,310.00" fill="none" stroke="#22D3EE" stroke-width="2.5" stroke-linecap="round" stroke-linejoin="round"/>

  <!-- Point Markers -->
  
        <g class="graph-point">
          <circle cx="95.00" cy="280.62" r="4.5" fill="#10B981" stroke="#0A101F" stroke-width="1.5">
            <title>August 10, 2026: 5 contributions</title>
          </circle>
        </g>
        
        <g class="graph-point">
          <circle cx="121.29" cy="310.00" r="4.5" fill="#10B981" stroke="#0A101F" stroke-width="1.5">
            <title>August 11, 2026: 0 contributions</title>
          </circle>
        </g>
        
        <g class="graph-point">
          <circle cx="147.58" cy="310.00" r="4.5" fill="#10B981" stroke="#0A101F" stroke-width="1.5">
            <title>August 12, 2026: 0 contributions</title>
          </circle>
        </g>
        
        <g class="graph-point">
          <circle cx="173.87" cy="263.00" r="4.5" fill="#10B981" stroke="#0A101F" stroke-width="1.5">
            <title>August 13, 2026: 8 contributions</title>
          </circle>
        </g>
        
        <g class="graph-point">
          <circle cx="200.16" cy="310.00" r="4.5" fill="#10B981" stroke="#0A101F" stroke-width="1.5">
            <title>August 14, 2026: 0 contributions</title>
          </circle>
        </g>
        
        <g class="graph-point">
          <circle cx="226.45" cy="310.00" r="4.5" fill="#10B981" stroke="#0A101F" stroke-width="1.5">
            <title>August 15, 2026: 0 contributions</title>
          </circle>
        </g>
        
        <g class="graph-point">
          <circle cx="252.74" cy="304.12" r="4.5" fill="#10B981" stroke="#0A101F" stroke-width="1.5">
            <title>August 16, 2026: 1 contribution</title>
          </circle>
        </g>
        
        <g class="graph-point">
          <circle cx="279.03" cy="198.38" r="4.5" fill="#10B981" stroke="#0A101F" stroke-width="1.5">
            <title>August 17, 2026: 19 contributions</title>
          </circle>
        </g>
        
        <g class="graph-point">
          <circle cx="305.32" cy="257.12" r="4.5" fill="#10B981" stroke="#0A101F" stroke-width="1.5">
            <title>August 18, 2026: 9 contributions</title>
          </circle>
        </g>
        
        <g class="graph-point">
          <circle cx="331.61" cy="304.12" r="4.5" fill="#10B981" stroke="#0A101F" stroke-width="1.5">
            <title>August 19, 2026: 1 contribution</title>
          </circle>
        </g>
        
        <g class="graph-point">
          <circle cx="357.90" cy="257.12" r="4.5" fill="#10B981" stroke="#0A101F" stroke-width="1.5">
            <title>August 20, 2026: 9 contributions</title>
          </circle>
        </g>
        
        <g class="graph-point">
          <circle cx="384.19" cy="292.38" r="4.5" fill="#10B981" stroke="#0A101F" stroke-width="1.5">
            <title>August 21, 2026: 3 contributions</title>
          </circle>
        </g>
        
        <g class="graph-point">
          <circle cx="410.48" cy="227.75" r="4.5" fill="#10B981" stroke="#0A101F" stroke-width="1.5">
            <title>August 22, 2026: 14 contributions</title>
          </circle>
        </g>
        
        <g class="graph-point">
          <circle cx="436.77" cy="204.25" r="4.5" fill="#10B981" stroke="#0A101F" stroke-width="1.5">
            <title>August 23, 2026: 18 contributions</title>
          </circle>
        </g>
        
        <g class="graph-point">
          <circle cx="463.06" cy="239.50" r="4.5" fill="#10B981" stroke="#0A101F" stroke-width="1.5">
            <title>August 24, 2026: 12 contributions</title>
          </circle>
        </g>
        
        <g class="graph-point">
          <circle cx="489.35" cy="304.12" r="4.5" fill="#10B981" stroke="#0A101F" stroke-width="1.5">
            <title>August 25, 2026: 1 contribution</title>
          </circle>
        </g>
        
        <g class="graph-point">
          <circle cx="515.65" cy="268.88" r="4.5" fill="#10B981" stroke="#0A101F" stroke-width="1.5">
            <title>August 26, 2026: 7 contributions</title>
          </circle>
        </g>
        
        <g class="graph-point">
          <circle cx="541.94" cy="304.12" r="4.5" fill="#10B981" stroke="#0A101F" stroke-width="1.5">
            <title>August 27, 2026: 1 contribution</title>
          </circle>
        </g>
        
        <g class="graph-point">
          <circle cx="568.23" cy="310.00" r="4.5" fill="#10B981" stroke="#0A101F" stroke-width="1.5">
            <title>August 28, 2026: 0 contributions</title>
          </circle>
        </g>
        
        <g class="graph-point">
          <circle cx="594.52" cy="304.12" r="4.5" fill="#10B981" stroke="#0A101F" stroke-width="1.5">
            <title>August 29, 2026: 1 contribution</title>
          </circle>
        </g>
        
        <g class="graph-point">
          <circle cx="620.81" cy="298.25" r="4.5" fill="#10B981" stroke="#0A101F" stroke-width="1.5">
            <title>August 30, 2026: 2 contributions</title>
          </circle>
        </g>
        
        <g class="graph-point">
          <circle cx="647.10" cy="310.00" r="4.5" fill="#10B981" stroke="#0A101F" stroke-width="1.5">
            <title>August 31, 2026: 0 contributions</title>
          </circle>
        </g>
        
        <g class="graph-point">
          <circle cx="673.39" cy="310.00" r="4.5" fill="#10B981" stroke="#0A101F" stroke-width="1.5">
            <title>September 01, 2026: 0 contributions</title>
          </circle>
        </g>
        
        <g class="graph-point">
          <circle cx="699.68" cy="304.12" r="4.5" fill="#10B981" stroke="#0A101F" stroke-width="1.5">
            <title>September 02, 2026: 1 contribution</title>
          </circle>
        </g>
        
        <g class="graph-point">
          <circle cx="725.97" cy="304.12" r="4.5" fill="#10B981" stroke="#0A101F" stroke-width="1.5">
            <title>September 03, 2026: 1 contribution</title>
          </circle>
        </g>
        
        <g class="graph-point">
          <circle cx="752.26" cy="310.00" r="4.5" fill="#10B981" stroke="#0A101F" stroke-width="1.5">
            <title>September 04, 2026: 0 contributions</title>
          </circle>
        </g>
        
        <g class="graph-point">
          <circle cx="778.55" cy="310.00" r="4.5" fill="#10B981" stroke="#0A101F" stroke-width="1.5">
            <title>September 05, 2026: 0 contributions</title>
          </circle>
        </g>
        
        <g class="graph-point">
          <circle cx="804.84" cy="310.00" r="4.5" fill="#10B981" stroke="#0A101F" stroke-width="1.5">
            <title>September 06, 2026: 0 contributions</title>
          </circle>
        </g>
        
        <g class="graph-point">
          <circle cx="831.13" cy="310.00" r="4.5" fill="#10B981" stroke="#0A101F" stroke-width="1.5">
            <title>September 07, 2026: 0 contributions</title>
          </circle>
        </g>
        
        <g class="graph-point">
          <circle cx="857.42" cy="310.00" r="4.5" fill="#10B981" stroke="#0A101F" stroke-width="1.5">
            <title>September 08, 2026: 0 contributions</title>
          </circle>
        </g>
        
        <g class="graph-point">
          <circle cx="883.71" cy="98.50" r="4.5" fill="#10B981" stroke="#0A101F" stroke-width="1.5">
            <title>September 09, 2026: 36 contributions</title>
          </circle>
        </g>
        
        <g class="graph-point">
          <circle cx="910.00" cy="310.00" r="4.5" fill="#10B981" stroke="#0A101F" stroke-width="1.5">
            <title>September 10, 2026: 0 contributions</title>
          </circle>
        </g>
        
</svg>