<svg xmlns="http://www.w3.org/2000/svg" viewBox="0 0 950 370" width="100%" height="100%">
  <defs>
    <linearGradient id="areaGradient_red" x1="0" y1="0" x2="0" y2="1">
      <stop offset="0%" stop-color="rgba(239, 68, 68, 0.35)"/>
      <stop offset="100%" stop-color="rgba(239, 68, 68, 0.00)"/>
    </linearGradient>
  </defs>

  <style>
    .card-bg { fill: #0A101F; stroke: rgba(255, 255, 255, 0.08); stroke-width: 1; }
    .title { fill: #E2E8F0; font-family: -apple-system, BlinkMacSystemFont, "Segoe UI", Roboto, Helvetica, Arial, sans-serif; font-size: 16px; font-weight: 700; }
    .subtitle { fill: #64748B; font-family: -apple-system, BlinkMacSystemFont, "Segoe UI", Roboto, Helvetica, Arial, sans-serif; font-size: 11.5px; font-weight: 500; }
    .axis-label { fill: #64748B; font-family: -apple-system, BlinkMacSystemFont, "Segoe UI", Roboto, Helvetica, Arial, sans-serif; font-size: 12px; font-weight: 600; letter-spacing: 0.5px; }
    .graph-point circle { transition: r 0.2s ease, fill 0.2s ease; cursor: pointer; }
    .graph-point circle:hover { r: 7; fill: #FFFFFF; filter: drop-shadow(0 0 6px #EF4444); }
  </style>

  <!-- Background Card -->
  <rect width="950" height="370" rx="12" class="card-bg"/>

  <!-- Title & Subtitle -->
  <text x="475.0" y="32" text-anchor="middle" class="title">RBCs-lang's Contribution Graph</text>
  <text x="475.0" y="50" text-anchor="middle" class="subtitle">Jul 24, 2026 – Aug 24, 2026</text>

  <!-- Y-Axis Label -->
  <text x="-192.5" y="32" text-anchor="middle" transform="rotate(-90)" class="axis-label">Contributions</text>

  <!-- X-Axis Label -->
  <text x="502.5" y="362" text-anchor="middle" class="axis-label">Days</text>

  <!-- Grid & Ticks -->
  
        <line x1="95" y1="310.0" x2="910" y2="310.0" stroke="rgba(255, 255, 255, 0.07)" stroke-dasharray="3 4" stroke-width="1"/>
        <text x="80" y="314.0" text-anchor="end" fill="#64748B" font-family="system-ui, -apple-system, sans-serif" font-size="12" font-weight="500">0</text>
        
        <line x1="95" y1="251.2" x2="910" y2="251.2" stroke="rgba(255, 255, 255, 0.07)" stroke-dasharray="3 4" stroke-width="1"/>
        <text x="80" y="255.2" text-anchor="end" fill="#64748B" font-family="system-ui, -apple-system, sans-serif" font-size="12" font-weight="500">10</text>
        
        <line x1="95" y1="192.5" x2="910" y2="192.5" stroke="rgba(255, 255, 255, 0.07)" stroke-dasharray="3 4" stroke-width="1"/>
        <text x="80" y="196.5" text-anchor="end" fill="#64748B" font-family="system-ui, -apple-system, sans-serif" font-size="12" font-weight="500">20</text>
        
        <line x1="95" y1="133.8" x2="910" y2="133.8" stroke="rgba(255, 255, 255, 0.07)" stroke-dasharray="3 4" stroke-width="1"/>
        <text x="80" y="137.8" text-anchor="end" fill="#64748B" font-family="system-ui, -apple-system, sans-serif" font-size="12" font-weight="500">30</text>
        
        <line x1="95" y1="75.0" x2="910" y2="75.0" stroke="rgba(255, 255, 255, 0.07)" stroke-dasharray="3 4" stroke-width="1"/>
        <text x="80" y="79.0" text-anchor="end" fill="#64748B" font-family="system-ui, -apple-system, sans-serif" font-size="12" font-weight="500">40</text>
        
  
            <text x="95.0" y="328" text-anchor="middle" fill="#E2E8F0" font-family="system-ui, -apple-system, sans-serif" font-size="10.5" font-weight="700">Jul</text>
            <text x="95.0" y="342" text-anchor="middle" fill="#64748B" font-family="system-ui, -apple-system, sans-serif" font-size="11" font-weight="600">24</text>
            
            <text x="121.3" y="335" text-anchor="middle" fill="#64748B" font-family="system-ui, -apple-system, sans-serif" font-size="11" font-weight="500">25</text>
            
            <text x="147.6" y="335" text-anchor="middle" fill="#64748B" font-family="system-ui, -apple-system, sans-serif" font-size="11" font-weight="500">26</text>
            
            <text x="173.9" y="335" text-anchor="middle" fill="#64748B" font-family="system-ui, -apple-system, sans-serif" font-size="11" font-weight="500">27</text>
            
            <text x="200.2" y="335" text-anchor="middle" fill="#64748B" font-family="system-ui, -apple-system, sans-serif" font-size="11" font-weight="500">28</text>
            
            <text x="226.5" y="335" text-anchor="middle" fill="#64748B" font-family="system-ui, -apple-system, sans-serif" font-size="11" font-weight="500">29</text>
            
            <text x="252.7" y="335" text-anchor="middle" fill="#64748B" font-family="system-ui, -apple-system, sans-serif" font-size="11" font-weight="500">30</text>
            
            <text x="279.0" y="335" text-anchor="middle" fill="#64748B" font-family="system-ui, -apple-system, sans-serif" font-size="11" font-weight="500">31</text>
            
            <text x="305.3" y="328" text-anchor="middle" fill="#E2E8F0" font-family="system-ui, -apple-system, sans-serif" font-size="10.5" font-weight="700">Aug</text>
            <text x="305.3" y="342" text-anchor="middle" fill="#64748B" font-family="system-ui, -apple-system, sans-serif" font-size="11" font-weight="600">1</text>
            
            <text x="331.6" y="335" text-anchor="middle" fill="#64748B" font-family="system-ui, -apple-system, sans-serif" font-size="11" font-weight="500">2</text>
            
            <text x="357.9" y="335" text-anchor="middle" fill="#64748B" font-family="system-ui, -apple-system, sans-serif" font-size="11" font-weight="500">3</text>
            
            <text x="384.2" y="335" text-anchor="middle" fill="#64748B" font-family="system-ui, -apple-system, sans-serif" font-size="11" font-weight="500">4</text>
            
            <text x="410.5" y="335" text-anchor="middle" fill="#64748B" font-family="system-ui, -apple-system, sans-serif" font-size="11" font-weight="500">5</text>
            
            <text x="436.8" y="335" text-anchor="middle" fill="#64748B" font-family="system-ui, -apple-system, sans-serif" font-size="11" font-weight="500">6</text>
            
            <text x="463.1" y="335" text-anchor="middle" fill="#64748B" font-family="system-ui, -apple-system, sans-serif" font-size="11" font-weight="500">7</text>
            
            <text x="489.4" y="335" text-anchor="middle" fill="#64748B" font-family="system-ui, -apple-system, sans-serif" font-size="11" font-weight="500">8</text>
            
            <text x="515.6" y="335" text-anchor="middle" fill="#64748B" font-family="system-ui, -apple-system, sans-serif" font-size="11" font-weight="500">9</text>
            
            <text x="541.9" y="335" text-anchor="middle" fill="#64748B" font-family="system-ui, -apple-system, sans-serif" font-size="11" font-weight="500">10</text>
            
            <text x="568.2" y="335" text-anchor="middle" fill="#64748B" font-family="system-ui, -apple-system, sans-serif" font-size="11" font-weight="500">11</text>
            
            <text x="594.5" y="335" text-anchor="middle" fill="#64748B" font-family="system-ui, -apple-system, sans-serif" font-size="11" font-weight="500">12</text>
            
            <text x="620.8" y="335" text-anchor="middle" fill="#64748B" font-family="system-ui, -apple-system, sans-serif" font-size="11" font-weight="500">13</text>
            
            <text x="647.1" y="335" text-anchor="middle" fill="#64748B" font-family="system-ui, -apple-system, sans-serif" font-size="11" font-weight="500">14</text>
            
            <text x="673.4" y="335" text-anchor="middle" fill="#64748B" font-family="system-ui, -apple-system, sans-serif" font-size="11" font-weight="500">15</text>
            
            <text x="699.7" y="335" text-anchor="middle" fill="#64748B" font-family="system-ui, -apple-system, sans-serif" font-size="11" font-weight="500">16</text>
            
            <text x="726.0" y="335" text-anchor="middle" fill="#64748B" font-family="system-ui, -apple-system, sans-serif" font-size="11" font-weight="500">17</text>
            
            <text x="752.3" y="335" text-anchor="middle" fill="#64748B" font-family="system-ui, -apple-system, sans-serif" font-size="11" font-weight="500">18</text>
            
            <text x="778.5" y="335" text-anchor="middle" fill="#64748B" font-family="system-ui, -apple-system, sans-serif" font-size="11" font-weight="500">19</text>
            
            <text x="804.8" y="335" text-anchor="middle" fill="#64748B" font-family="system-ui, -apple-system, sans-serif" font-size="11" font-weight="500">20</text>
            
            <text x="831.1" y="335" text-anchor="middle" fill="#64748B" font-family="system-ui, -apple-system, sans-serif" font-size="11" font-weight="500">21</text>
            
            <text x="857.4" y="335" text-anchor="middle" fill="#64748B" font-family="system-ui, -apple-system, sans-serif" font-size="11" font-weight="500">22</text>
            
            <text x="883.7" y="335" text-anchor="middle" fill="#64748B" font-family="system-ui, -apple-system, sans-serif" font-size="11" font-weight="500">23</text>
            
            <text x="910.0" y="335" text-anchor="middle" fill="#64748B" font-family="system-ui, -apple-system, sans-serif" font-size="11" font-weight="500">24</text>
            

  <!-- Area Gradient Fill -->
  <path d="M 95.00,127.88 C 99.38,129.83 112.53,112.21 121.29,139.62 C 130.05,167.04 138.82,264.96 147.58,292.38 C 156.34,319.79 165.11,328.60 173.87,304.12 C 182.63,279.65 191.40,165.08 200.16,145.50 C 208.92,125.92 217.69,169.98 226.45,186.62 C 235.22,203.27 243.98,233.62 252.74,245.38 C 261.51,257.12 270.27,251.25 279.03,257.12 C 287.80,263.00 296.56,284.54 305.32,280.62 C 314.09,276.71 322.85,235.58 331.61,233.62 C 340.38,231.67 349.14,256.15 357.90,268.88 C 366.67,281.60 375.43,303.15 384.19,310.00 C 392.96,316.85 401.72,310.00 410.48,310.00 C 419.25,310.00 428.01,310.00 436.77,310.00 C 445.54,310.00 454.30,317.83 463.06,310.00 C 471.83,302.17 480.59,263.98 489.35,263.00 C 498.12,262.02 506.88,301.19 515.65,304.12 C 524.41,307.06 533.17,279.65 541.94,280.62 C 550.70,281.60 559.46,305.10 568.23,310.00 C 576.99,314.90 585.75,317.83 594.52,310.00 C 603.28,302.17 612.04,263.00 620.81,263.00 C 629.57,263.00 638.33,302.17 647.10,310.00 C 655.86,317.83 664.62,310.98 673.39,310.00 C 682.15,309.02 690.91,322.73 699.68,304.12 C 708.44,285.52 717.20,206.21 725.97,198.38 C 734.73,190.54 743.49,239.50 752.26,257.12 C 761.02,274.75 769.78,304.12 778.55,304.12 C 787.31,304.12 796.08,259.08 804.84,257.12 C 813.60,255.17 822.37,297.27 831.13,292.38 C 839.89,287.48 848.66,242.44 857.42,227.75 C 866.18,213.06 874.95,196.42 883.71,204.25 C 892.47,212.08 905.62,263.00 910.00,274.75 L 910.00,310.00 L 95.00,310.00 Z" fill="url(#areaGradient_red)"/>

  <!-- Line Chart Path -->
  <path d="M 95.00,127.88 C 99.38,129.83 112.53,112.21 121.29,139.62 C 130.05,167.04 138.82,264.96 147.58,292.38 C 156.34,319.79 165.11,328.60 173.87,304.12 C 182.63,279.65 191.40,165.08 200.16,145.50 C 208.92,125.92 217.69,169.98 226.45,186.62 C 235.22,203.27 243.98,233.62 252.74,245.38 C 261.51,257.12 270.27,251.25 279.03,257.12 C 287.80,263.00 296.56,284.54 305.32,280.62 C 314.09,276.71 322.85,235.58 331.61,233.62 C 340.38,231.67 349.14,256.15 357.90,268.88 C 366.67,281.60 375.43,303.15 384.19,310.00 C 392.96,316.85 401.72,310.00 410.48,310.00 C 419.25,310.00 428.01,310.00 436.77,310.00 C 445.54,310.00 454.30,317.83 463.06,310.00 C 471.83,302.17 480.59,263.98 489.35,263.00 C 498.12,262.02 506.88,301.19 515.65,304.12 C 524.41,307.06 533.17,279.65 541.94,280.62 C 550.70,281.60 559.46,305.10 568.23,310.00 C 576.99,314.90 585.75,317.83 594.52,310.00 C 603.28,302.17 612.04,263.00 620.81,263.00 C 629.57,263.00 638.33,302.17 647.10,310.00 C 655.86,317.83 664.62,310.98 673.39,310.00 C 682.15,309.02 690.91,322.73 699.68,304.12 C 708.44,285.52 717.20,206.21 725.97,198.38 C 734.73,190.54 743.49,239.50 752.26,257.12 C 761.02,274.75 769.78,304.12 778.55,304.12 C 787.31,304.12 796.08,259.08 804.84,257.12 C 813.60,255.17 822.37,297.27 831.13,292.38 C 839.89,287.48 848.66,242.44 857.42,227.75 C 866.18,213.06 874.95,196.42 883.71,204.25 C 892.47,212.08 905.62,263.00 910.00,274.75" fill="none" stroke="#EF4444" stroke-width="2.5" stroke-linecap="round" stroke-linejoin="round"/>

  <!-- Point Markers -->
  
        <g class="graph-point">
          <circle cx="95.00" cy="127.88" r="4.5" fill="#EF4444" stroke="#0A101F" stroke-width="1.5">
            <title>July 24, 2026: 31 contributions</title>
          </circle>
        </g>
        
        <g class="graph-point">
          <circle cx="121.29" cy="139.62" r="4.5" fill="#EF4444" stroke="#0A101F" stroke-width="1.5">
            <title>July 25, 2026: 29 contributions</title>
          </circle>
        </g>
        
        <g class="graph-point">
          <circle cx="147.58" cy="292.38" r="4.5" fill="#EF4444" stroke="#0A101F" stroke-width="1.5">
            <title>July 26, 2026: 3 contributions</title>
          </circle>
        </g>
        
        <g class="graph-point">
          <circle cx="173.87" cy="304.12" r="4.5" fill="#EF4444" stroke="#0A101F" stroke-width="1.5">
            <title>July 27, 2026: 1 contribution</title>
          </circle>
        </g>
        
        <g class="graph-point">
          <circle cx="200.16" cy="145.50" r="4.5" fill="#EF4444" stroke="#0A101F" stroke-width="1.5">
            <title>July 28, 2026: 28 contributions</title>
          </circle>
        </g>
        
        <g class="graph-point">
          <circle cx="226.45" cy="186.62" r="4.5" fill="#EF4444" stroke="#0A101F" stroke-width="1.5">
            <title>July 29, 2026: 21 contributions</title>
          </circle>
        </g>
        
        <g class="graph-point">
          <circle cx="252.74" cy="245.38" r="4.5" fill="#EF4444" stroke="#0A101F" stroke-width="1.5">
            <title>July 30, 2026: 11 contributions</title>
          </circle>
        </g>
        
        <g class="graph-point">
          <circle cx="279.03" cy="257.12" r="4.5" fill="#EF4444" stroke="#0A101F" stroke-width="1.5">
            <title>July 31, 2026: 9 contributions</title>
          </circle>
        </g>
        
        <g class="graph-point">
          <circle cx="305.32" cy="280.62" r="4.5" fill="#EF4444" stroke="#0A101F" stroke-width="1.5">
            <title>August 01, 2026: 5 contributions</title>
          </circle>
        </g>
        
        <g class="graph-point">
          <circle cx="331.61" cy="233.62" r="4.5" fill="#EF4444" stroke="#0A101F" stroke-width="1.5">
            <title>August 02, 2026: 13 contributions</title>
          </circle>
        </g>
        
        <g class="graph-point">
          <circle cx="357.90" cy="268.88" r="4.5" fill="#EF4444" stroke="#0A101F" stroke-width="1.5">
            <title>August 03, 2026: 7 contributions</title>
          </circle>
        </g>
        
        <g class="graph-point">
          <circle cx="384.19" cy="310.00" r="4.5" fill="#EF4444" stroke="#0A101F" stroke-width="1.5">
            <title>August 04, 2026: 0 contributions</title>
          </circle>
        </g>
        
        <g class="graph-point">
          <circle cx="410.48" cy="310.00" r="4.5" fill="#EF4444" stroke="#0A101F" stroke-width="1.5">
            <title>August 05, 2026: 0 contributions</title>
          </circle>
        </g>
        
        <g class="graph-point">
          <circle cx="436.77" cy="310.00" r="4.5" fill="#EF4444" stroke="#0A101F" stroke-width="1.5">
            <title>August 06, 2026: 0 contributions</title>
          </circle>
        </g>
        
        <g class="graph-point">
          <circle cx="463.06" cy="310.00" r="4.5" fill="#EF4444" stroke="#0A101F" stroke-width="1.5">
            <title>August 07, 2026: 0 contributions</title>
          </circle>
        </g>
        
        <g class="graph-point">
          <circle cx="489.35" cy="263.00" r="4.5" fill="#EF4444" stroke="#0A101F" stroke-width="1.5">
            <title>August 08, 2026: 8 contributions</title>
          </circle>
        </g>
        
        <g class="graph-point">
          <circle cx="515.65" cy="304.12" r="4.5" fill="#EF4444" stroke="#0A101F" stroke-width="1.5">
            <title>August 09, 2026: 1 contribution</title>
          </circle>
        </g>
        
        <g class="graph-point">
          <circle cx="541.94" cy="280.62" r="4.5" fill="#EF4444" stroke="#0A101F" stroke-width="1.5">
            <title>August 10, 2026: 5 contributions</title>
          </circle>
        </g>
        
        <g class="graph-point">
          <circle cx="568.23" cy="310.00" r="4.5" fill="#EF4444" stroke="#0A101F" stroke-width="1.5">
            <title>August 11, 2026: 0 contributions</title>
          </circle>
        </g>
        
        <g class="graph-point">
          <circle cx="594.52" cy="310.00" r="4.5" fill="#EF4444" stroke="#0A101F" stroke-width="1.5">
            <title>August 12, 2026: 0 contributions</title>
          </circle>
        </g>
        
        <g class="graph-point">
          <circle cx="620.81" cy="263.00" r="4.5" fill="#EF4444" stroke="#0A101F" stroke-width="1.5">
            <title>August 13, 2026: 8 contributions</title>
          </circle>
        </g>
        
        <g class="graph-point">
          <circle cx="647.10" cy="310.00" r="4.5" fill="#EF4444" stroke="#0A101F" stroke-width="1.5">
            <title>August 14, 2026: 0 contributions</title>
          </circle>
        </g>
        
        <g class="graph-point">
          <circle cx="673.39" cy="310.00" r="4.5" fill="#EF4444" stroke="#0A101F" stroke-width="1.5">
            <title>August 15, 2026: 0 contributions</title>
          </circle>
        </g>
        
        <g class="graph-point">
          <circle cx="699.68" cy="304.12" r="4.5" fill="#EF4444" stroke="#0A101F" stroke-width="1.5">
            <title>August 16, 2026: 1 contribution</title>
          </circle>
        </g>
        
        <g class="graph-point">
          <circle cx="725.97" cy="198.38" r="4.5" fill="#EF4444" stroke="#0A101F" stroke-width="1.5">
            <title>August 17, 2026: 19 contributions</title>
          </circle>
        </g>
        
        <g class="graph-point">
          <circle cx="752.26" cy="257.12" r="4.5" fill="#EF4444" stroke="#0A101F" stroke-width="1.5">
            <title>August 18, 2026: 9 contributions</title>
          </circle>
        </g>
        
        <g class="graph-point">
          <circle cx="778.55" cy="304.12" r="4.5" fill="#EF4444" stroke="#0A101F" stroke-width="1.5">
            <title>August 19, 2026: 1 contribution</title>
          </circle>
        </g>
        
        <g class="graph-point">
          <circle cx="804.84" cy="257.12" r="4.5" fill="#EF4444" stroke="#0A101F" stroke-width="1.5">
            <title>August 20, 2026: 9 contributions</title>
          </circle>
        </g>
        
        <g class="graph-point">
          <circle cx="831.13" cy="292.38" r="4.5" fill="#EF4444" stroke="#0A101F" stroke-width="1.5">
            <title>August 21, 2026: 3 contributions</title>
          </circle>
        </g>
        
        <g class="graph-point">
          <circle cx="857.42" cy="227.75" r="4.5" fill="#EF4444" stroke="#0A101F" stroke-width="1.5">
            <title>August 22, 2026: 14 contributions</title>
          </circle>
        </g>
        
        <g class="graph-point">
          <circle cx="883.71" cy="204.25" r="4.5" fill="#EF4444" stroke="#0A101F" stroke-width="1.5">
            <title>August 23, 2026: 18 contributions</title>
          </circle>
        </g>
        
        <g class="graph-point">
          <circle cx="910.00" cy="274.75" r="4.5" fill="#EF4444" stroke="#0A101F" stroke-width="1.5">
            <title>August 24, 2026: 6 contributions</title>
          </circle>
        </g>
        
</svg>