<svg xmlns="http://www.w3.org/2000/svg" viewBox="0 0 950 370" width="100%" height="100%">
  <defs>
    <linearGradient id="areaGradient_cyan" x1="0" y1="0" x2="0" y2="1">
      <stop offset="0%" stop-color="rgba(34, 211, 238, 0.35)"/>
      <stop offset="100%" stop-color="rgba(34, 211, 238, 0.00)"/>
    </linearGradient>
  </defs>

  <style>
    .card-bg { fill: #0A101F; stroke: rgba(255, 255, 255, 0.08); stroke-width: 1; }
    .title { fill: #E2E8F0; font-family: -apple-system, BlinkMacSystemFont, "Segoe UI", Roboto, Helvetica, Arial, sans-serif; font-size: 16px; font-weight: 700; }
    .subtitle { fill: #64748B; font-family: -apple-system, BlinkMacSystemFont, "Segoe UI", Roboto, Helvetica, Arial, sans-serif; font-size: 11.5px; font-weight: 500; }
    .axis-label { fill: #64748B; font-family: -apple-system, BlinkMacSystemFont, "Segoe UI", Roboto, Helvetica, Arial, sans-serif; font-size: 12px; font-weight: 600; letter-spacing: 0.5px; }
    .graph-point circle { transition: r 0.2s ease, fill 0.2s ease; cursor: pointer; }
    .graph-point circle:hover { r: 7; fill: #FFFFFF; filter: drop-shadow(0 0 6px #22D3EE); }
  </style>

  <!-- Background Card -->
  <rect width="950" height="370" rx="12" class="card-bg"/>

  <!-- Title & Subtitle -->
  <text x="475.0" y="32" text-anchor="middle" class="title">RBCs-lang's Contribution Graph</text>
  <text x="475.0" y="50" text-anchor="middle" class="subtitle">Jul 28, 2026 – Aug 28, 2026</text>

  <!-- Y-Axis Label -->
  <text x="-192.5" y="32" text-anchor="middle" transform="rotate(-90)" class="axis-label">Contributions</text>

  <!-- X-Axis Label -->
  <text x="502.5" y="362" text-anchor="middle" class="axis-label">Days</text>

  <!-- Grid & Ticks -->
  
        <line x1="95" y1="310.0" x2="910" y2="310.0" stroke="rgba(255, 255, 255, 0.07)" stroke-dasharray="3 4" stroke-width="1"/>
        <text x="80" y="314.0" text-anchor="end" fill="#64748B" font-family="system-ui, -apple-system, sans-serif" font-size="12" font-weight="500">0</text>
        
        <line x1="95" y1="270.8" x2="910" y2="270.8" stroke="rgba(255, 255, 255, 0.07)" stroke-dasharray="3 4" stroke-width="1"/>
        <text x="80" y="274.8" text-anchor="end" fill="#64748B" font-family="system-ui, -apple-system, sans-serif" font-size="12" font-weight="500">5</text>
        
        <line x1="95" y1="231.7" x2="910" y2="231.7" stroke="rgba(255, 255, 255, 0.07)" stroke-dasharray="3 4" stroke-width="1"/>
        <text x="80" y="235.7" text-anchor="end" fill="#64748B" font-family="system-ui, -apple-system, sans-serif" font-size="12" font-weight="500">10</text>
        
        <line x1="95" y1="192.5" x2="910" y2="192.5" stroke="rgba(255, 255, 255, 0.07)" stroke-dasharray="3 4" stroke-width="1"/>
        <text x="80" y="196.5" text-anchor="end" fill="#64748B" font-family="system-ui, -apple-system, sans-serif" font-size="12" font-weight="500">15</text>
        
        <line x1="95" y1="153.3" x2="910" y2="153.3" stroke="rgba(255, 255, 255, 0.07)" stroke-dasharray="3 4" stroke-width="1"/>
        <text x="80" y="157.3" text-anchor="end" fill="#64748B" font-family="system-ui, -apple-system, sans-serif" font-size="12" font-weight="500">20</text>
        
        <line x1="95" y1="114.2" x2="910" y2="114.2" stroke="rgba(255, 255, 255, 0.07)" stroke-dasharray="3 4" stroke-width="1"/>
        <text x="80" y="118.2" text-anchor="end" fill="#64748B" font-family="system-ui, -apple-system, sans-serif" font-size="12" font-weight="500">25</text>
        
        <line x1="95" y1="75.0" x2="910" y2="75.0" stroke="rgba(255, 255, 255, 0.07)" stroke-dasharray="3 4" stroke-width="1"/>
        <text x="80" y="79.0" text-anchor="end" fill="#64748B" font-family="system-ui, -apple-system, sans-serif" font-size="12" font-weight="500">30</text>
        
  
            <text x="95.0" y="328" text-anchor="middle" fill="#E2E8F0" font-family="system-ui, -apple-system, sans-serif" font-size="10.5" font-weight="700">Jul</text>
            <text x="95.0" y="342" text-anchor="middle" fill="#64748B" font-family="system-ui, -apple-system, sans-serif" font-size="11" font-weight="600">28</text>
            
            <text x="121.3" y="335" text-anchor="middle" fill="#64748B" font-family="system-ui, -apple-system, sans-serif" font-size="11" font-weight="500">29</text>
            
            <text x="147.6" y="335" text-anchor="middle" fill="#64748B" font-family="system-ui, -apple-system, sans-serif" font-size="11" font-weight="500">30</text>
            
            <text x="173.9" y="335" text-anchor="middle" fill="#64748B" font-family="system-ui, -apple-system, sans-serif" font-size="11" font-weight="500">31</text>
            
            <text x="200.2" y="328" text-anchor="middle" fill="#E2E8F0" font-family="system-ui, -apple-system, sans-serif" font-size="10.5" font-weight="700">Aug</text>
            <text x="200.2" y="342" text-anchor="middle" fill="#64748B" font-family="system-ui, -apple-system, sans-serif" font-size="11" font-weight="600">1</text>
            
            <text x="226.5" y="335" text-anchor="middle" fill="#64748B" font-family="system-ui, -apple-system, sans-serif" font-size="11" font-weight="500">2</text>
            
            <text x="252.7" y="335" text-anchor="middle" fill="#64748B" font-family="system-ui, -apple-system, sans-serif" font-size="11" font-weight="500">3</text>
            
            <text x="279.0" y="335" text-anchor="middle" fill="#64748B" font-family="system-ui, -apple-system, sans-serif" font-size="11" font-weight="500">4</text>
            
            <text x="305.3" y="335" text-anchor="middle" fill="#64748B" font-family="system-ui, -apple-system, sans-serif" font-size="11" font-weight="500">5</text>
            
            <text x="331.6" y="335" text-anchor="middle" fill="#64748B" font-family="system-ui, -apple-system, sans-serif" font-size="11" font-weight="500">6</text>
            
            <text x="357.9" y="335" text-anchor="middle" fill="#64748B" font-family="system-ui, -apple-system, sans-serif" font-size="11" font-weight="500">7</text>
            
            <text x="384.2" y="335" text-anchor="middle" fill="#64748B" font-family="system-ui, -apple-system, sans-serif" font-size="11" font-weight="500">8</text>
            
            <text x="410.5" y="335" text-anchor="middle" fill="#64748B" font-family="system-ui, -apple-system, sans-serif" font-size="11" font-weight="500">9</text>
            
            <text x="436.8" y="335" text-anchor="middle" fill="#64748B" font-family="system-ui, -apple-system, sans-serif" font-size="11" font-weight="500">10</text>
            
            <text x="463.1" y="335" text-anchor="middle" fill="#64748B" font-family="system-ui, -apple-system, sans-serif" font-size="11" font-weight="500">11</text>
            
            <text x="489.4" y="335" text-anchor="middle" fill="#64748B" font-family="system-ui, -apple-system, sans-serif" font-size="11" font-weight="500">12</text>
            
            <text x="515.6" y="335" text-anchor="middle" fill="#64748B" font-family="system-ui, -apple-system, sans-serif" font-size="11" font-weight="500">13</text>
            
            <text x="541.9" y="335" text-anchor="middle" fill="#64748B" font-family="system-ui, -apple-system, sans-serif" font-size="11" font-weight="500">14</text>
            
            <text x="568.2" y="335" text-anchor="middle" fill="#64748B" font-family="system-ui, -apple-system, sans-serif" font-size="11" font-weight="500">15</text>
            
            <text x="594.5" y="335" text-anchor="middle" fill="#64748B" font-family="system-ui, -apple-system, sans-serif" font-size="11" font-weight="500">16</text>
            
            <text x="620.8" y="335" text-anchor="middle" fill="#64748B" font-family="system-ui, -apple-system, sans-serif" font-size="11" font-weight="500">17</text>
            
            <text x="647.1" y="335" text-anchor="middle" fill="#64748B" font-family="system-ui, -apple-system, sans-serif" font-size="11" font-weight="500">18</text>
            
            <text x="673.4" y="335" text-anchor="middle" fill="#64748B" font-family="system-ui, -apple-system, sans-serif" font-size="11" font-weight="500">19</text>
            
            <text x="699.7" y="335" text-anchor="middle" fill="#64748B" font-family="system-ui, -apple-system, sans-serif" font-size="11" font-weight="500">20</text>
            
            <text x="726.0" y="335" text-anchor="middle" fill="#64748B" font-family="system-ui, -apple-system, sans-serif" font-size="11" font-weight="500">21</text>
            
            <text x="752.3" y="335" text-anchor="middle" fill="#64748B" font-family="system-ui, -apple-system, sans-serif" font-size="11" font-weight="500">22</text>
            
            <text x="778.5" y="335" text-anchor="middle" fill="#64748B" font-family="system-ui, -apple-system, sans-serif" font-size="11" font-weight="500">23</text>
            
            <text x="804.8" y="335" text-anchor="middle" fill="#64748B" font-family="system-ui, -apple-system, sans-serif" font-size="11" font-weight="500">24</text>
            
            <text x="831.1" y="335" text-anchor="middle" fill="#64748B" font-family="system-ui, -apple-system, sans-serif" font-size="11" font-weight="500">25</text>
            
            <text x="857.4" y="335" text-anchor="middle" fill="#64748B" font-family="system-ui, -apple-system, sans-serif" font-size="11" font-weight="500">26</text>
            
            <text x="883.7" y="335" text-anchor="middle" fill="#64748B" font-family="system-ui, -apple-system, sans-serif" font-size="11" font-weight="500">27</text>
            
            <text x="910.0" y="335" text-anchor="middle" fill="#64748B" font-family="system-ui, -apple-system, sans-serif" font-size="11" font-weight="500">28</text>
            

  <!-- Area Gradient Fill -->
  <path d="M 95.00,90.67 C 99.38,99.81 112.53,123.31 121.29,145.50 C 130.05,167.69 138.82,208.17 147.58,223.83 C 156.34,239.50 165.11,231.67 173.87,239.50 C 182.63,247.33 191.40,276.06 200.16,270.83 C 208.92,265.61 217.69,210.78 226.45,208.17 C 235.22,205.56 243.98,238.19 252.74,255.17 C 261.51,272.14 270.27,300.86 279.03,310.00 C 287.80,319.14 296.56,310.00 305.32,310.00 C 314.09,310.00 322.85,310.00 331.61,310.00 C 340.38,310.00 349.14,320.44 357.90,310.00 C 366.67,299.56 375.43,248.64 384.19,247.33 C 392.96,246.03 401.72,298.25 410.48,302.17 C 419.25,306.08 428.01,269.53 436.77,270.83 C 445.54,272.14 454.30,303.47 463.06,310.00 C 471.83,316.53 480.59,320.44 489.35,310.00 C 498.12,299.56 506.88,247.33 515.65,247.33 C 524.41,247.33 533.17,299.56 541.94,310.00 C 550.70,320.44 559.46,311.31 568.23,310.00 C 576.99,308.69 585.75,326.97 594.52,302.17 C 603.28,277.36 612.04,171.61 620.81,161.17 C 629.57,150.72 638.33,216.00 647.10,239.50 C 655.86,263.00 664.62,302.17 673.39,302.17 C 682.15,302.17 690.91,242.11 699.68,239.50 C 708.44,236.89 717.20,293.03 725.97,286.50 C 734.73,279.97 743.49,219.92 752.26,200.33 C 761.02,180.75 769.78,166.39 778.55,169.00 C 787.31,171.61 796.08,193.81 804.84,216.00 C 813.60,238.19 822.37,295.64 831.13,302.17 C 839.89,308.69 848.66,255.17 857.42,255.17 C 866.18,255.17 874.95,293.03 883.71,302.17 C 892.47,311.31 905.62,308.69 910.00,310.00 L 910.00,310.00 L 95.00,310.00 Z" fill="url(#areaGradient_cyan)"/>

  <!-- Line Chart Path -->
  <path d="M 95.00,90.67 C 99.38,99.81 112.53,123.31 121.29,145.50 C 130.05,167.69 138.82,208.17 147.58,223.83 C 156.34,239.50 165.11,231.67 173.87,239.50 C 182.63,247.33 191.40,276.06 200.16,270.83 C 208.92,265.61 217.69,210.78 226.45,208.17 C 235.22,205.56 243.98,238.19 252.74,255.17 C 261.51,272.14 270.27,300.86 279.03,310.00 C 287.80,319.14 296.56,310.00 305.32,310.00 C 314.09,310.00 322.85,310.00 331.61,310.00 C 340.38,310.00 349.14,320.44 357.90,310.00 C 366.67,299.56 375.43,248.64 384.19,247.33 C 392.96,246.03 401.72,298.25 410.48,302.17 C 419.25,306.08 428.01,269.53 436.77,270.83 C 445.54,272.14 454.30,303.47 463.06,310.00 C 471.83,316.53 480.59,320.44 489.35,310.00 C 498.12,299.56 506.88,247.33 515.65,247.33 C 524.41,247.33 533.17,299.56 541.94,310.00 C 550.70,320.44 559.46,311.31 568.23,310.00 C 576.99,308.69 585.75,326.97 594.52,302.17 C 603.28,277.36 612.04,171.61 620.81,161.17 C 629.57,150.72 638.33,216.00 647.10,239.50 C 655.86,263.00 664.62,302.17 673.39,302.17 C 682.15,302.17 690.91,242.11 699.68,239.50 C 708.44,236.89 717.20,293.03 725.97,286.50 C 734.73,279.97 743.49,219.92 752.26,200.33 C 761.02,180.75 769.78,166.39 778.55,169.00 C 787.31,171.61 796.08,193.81 804.84,216.00 C 813.60,238.19 822.37,295.64 831.13,302.17 C 839.89,308.69 848.66,255.17 857.42,255.17 C 866.18,255.17 874.95,293.03 883.71,302.17 C 892.47,311.31 905.62,308.69 910.00,310.00" fill="none" stroke="#22D3EE" stroke-width="2.5" stroke-linecap="round" stroke-linejoin="round"/>

  <!-- Point Markers -->
  
        <g class="graph-point">
          <circle cx="95.00" cy="90.67" r="4.5" fill="#10B981" stroke="#0A101F" stroke-width="1.5">
            <title>July 28, 2026: 28 contributions</title>
          </circle>
        </g>
        
        <g class="graph-point">
          <circle cx="121.29" cy="145.50" r="4.5" fill="#10B981" stroke="#0A101F" stroke-width="1.5">
            <title>July 29, 2026: 21 contributions</title>
          </circle>
        </g>
        
        <g class="graph-point">
          <circle cx="147.58" cy="223.83" r="4.5" fill="#10B981" stroke="#0A101F" stroke-width="1.5">
            <title>July 30, 2026: 11 contributions</title>
          </circle>
        </g>
        
        <g class="graph-point">
          <circle cx="173.87" cy="239.50" r="4.5" fill="#10B981" stroke="#0A101F" stroke-width="1.5">
            <title>July 31, 2026: 9 contributions</title>
          </circle>
        </g>
        
        <g class="graph-point">
          <circle cx="200.16" cy="270.83" r="4.5" fill="#10B981" stroke="#0A101F" stroke-width="1.5">
            <title>August 01, 2026: 5 contributions</title>
          </circle>
        </g>
        
        <g class="graph-point">
          <circle cx="226.45" cy="208.17" r="4.5" fill="#10B981" stroke="#0A101F" stroke-width="1.5">
            <title>August 02, 2026: 13 contributions</title>
          </circle>
        </g>
        
        <g class="graph-point">
          <circle cx="252.74" cy="255.17" r="4.5" fill="#10B981" stroke="#0A101F" stroke-width="1.5">
            <title>August 03, 2026: 7 contributions</title>
          </circle>
        </g>
        
        <g class="graph-point">
          <circle cx="279.03" cy="310.00" r="4.5" fill="#10B981" stroke="#0A101F" stroke-width="1.5">
            <title>August 04, 2026: 0 contributions</title>
          </circle>
        </g>
        
        <g class="graph-point">
          <circle cx="305.32" cy="310.00" r="4.5" fill="#10B981" stroke="#0A101F" stroke-width="1.5">
            <title>August 05, 2026: 0 contributions</title>
          </circle>
        </g>
        
        <g class="graph-point">
          <circle cx="331.61" cy="310.00" r="4.5" fill="#10B981" stroke="#0A101F" stroke-width="1.5">
            <title>August 06, 2026: 0 contributions</title>
          </circle>
        </g>
        
        <g class="graph-point">
          <circle cx="357.90" cy="310.00" r="4.5" fill="#10B981" stroke="#0A101F" stroke-width="1.5">
            <title>August 07, 2026: 0 contributions</title>
          </circle>
        </g>
        
        <g class="graph-point">
          <circle cx="384.19" cy="247.33" r="4.5" fill="#10B981" stroke="#0A101F" stroke-width="1.5">
            <title>August 08, 2026: 8 contributions</title>
          </circle>
        </g>
        
        <g class="graph-point">
          <circle cx="410.48" cy="302.17" r="4.5" fill="#10B981" stroke="#0A101F" stroke-width="1.5">
            <title>August 09, 2026: 1 contribution</title>
          </circle>
        </g>
        
        <g class="graph-point">
          <circle cx="436.77" cy="270.83" r="4.5" fill="#10B981" stroke="#0A101F" stroke-width="1.5">
            <title>August 10, 2026: 5 contributions</title>
          </circle>
        </g>
        
        <g class="graph-point">
          <circle cx="463.06" cy="310.00" r="4.5" fill="#10B981" stroke="#0A101F" stroke-width="1.5">
            <title>August 11, 2026: 0 contributions</title>
          </circle>
        </g>
        
        <g class="graph-point">
          <circle cx="489.35" cy="310.00" r="4.5" fill="#10B981" stroke="#0A101F" stroke-width="1.5">
            <title>August 12, 2026: 0 contributions</title>
          </circle>
        </g>
        
        <g class="graph-point">
          <circle cx="515.65" cy="247.33" r="4.5" fill="#10B981" stroke="#0A101F" stroke-width="1.5">
            <title>August 13, 2026: 8 contributions</title>
          </circle>
        </g>
        
        <g class="graph-point">
          <circle cx="541.94" cy="310.00" r="4.5" fill="#10B981" stroke="#0A101F" stroke-width="1.5">
            <title>August 14, 2026: 0 contributions</title>
          </circle>
        </g>
        
        <g class="graph-point">
          <circle cx="568.23" cy="310.00" r="4.5" fill="#10B981" stroke="#0A101F" stroke-width="1.5">
            <title>August 15, 2026: 0 contributions</title>
          </circle>
        </g>
        
        <g class="graph-point">
          <circle cx="594.52" cy="302.17" r="4.5" fill="#10B981" stroke="#0A101F" stroke-width="1.5">
            <title>August 16, 2026: 1 contribution</title>
          </circle>
        </g>
        
        <g class="graph-point">
          <circle cx="620.81" cy="161.17" r="4.5" fill="#10B981" stroke="#0A101F" stroke-width="1.5">
            <title>August 17, 2026: 19 contributions</title>
          </circle>
        </g>
        
        <g class="graph-point">
          <circle cx="647.10" cy="239.50" r="4.5" fill="#10B981" stroke="#0A101F" stroke-width="1.5">
            <title>August 18, 2026: 9 contributions</title>
          </circle>
        </g>
        
        <g class="graph-point">
          <circle cx="673.39" cy="302.17" r="4.5" fill="#10B981" stroke="#0A101F" stroke-width="1.5">
            <title>August 19, 2026: 1 contribution</title>
          </circle>
        </g>
        
        <g class="graph-point">
          <circle cx="699.68" cy="239.50" r="4.5" fill="#10B981" stroke="#0A101F" stroke-width="1.5">
            <title>August 20, 2026: 9 contributions</title>
          </circle>
        </g>
        
        <g class="graph-point">
          <circle cx="725.97" cy="286.50" r="4.5" fill="#10B981" stroke="#0A101F" stroke-width="1.5">
            <title>August 21, 2026: 3 contributions</title>
          </circle>
        </g>
        
        <g class="graph-point">
          <circle cx="752.26" cy="200.33" r="4.5" fill="#10B981" stroke="#0A101F" stroke-width="1.5">
            <title>August 22, 2026: 14 contributions</title>
          </circle>
        </g>
        
        <g class="graph-point">
          <circle cx="778.55" cy="169.00" r="4.5" fill="#10B981" stroke="#0A101F" stroke-width="1.5">
            <title>August 23, 2026: 18 contributions</title>
          </circle>
        </g>
        
        <g class="graph-point">
          <circle cx="804.84" cy="216.00" r="4.5" fill="#10B981" stroke="#0A101F" stroke-width="1.5">
            <title>August 24, 2026: 12 contributions</title>
          </circle>
        </g>
        
        <g class="graph-point">
          <circle cx="831.13" cy="302.17" r="4.5" fill="#10B981" stroke="#0A101F" stroke-width="1.5">
            <title>August 25, 2026: 1 contribution</title>
          </circle>
        </g>
        
        <g class="graph-point">
          <circle cx="857.42" cy="255.17" r="4.5" fill="#10B981" stroke="#0A101F" stroke-width="1.5">
            <title>August 26, 2026: 7 contributions</title>
          </circle>
        </g>
        
        <g class="graph-point">
          <circle cx="883.71" cy="302.17" r="4.5" fill="#10B981" stroke="#0A101F" stroke-width="1.5">
            <title>August 27, 2026: 1 contribution</title>
          </circle>
        </g>
        
        <g class="graph-point">
          <circle cx="910.00" cy="310.00" r="4.5" fill="#10B981" stroke="#0A101F" stroke-width="1.5">
            <title>August 28, 2026: 0 contributions</title>
          </circle>
        </g>
        
</svg>